<svg xmlns="http://www.w3.org/2000/svg" viewBox="0 0 1600 190" width="1600" height="190" preserveAspectRatio="xMidYMax slice" fill="none" aria-hidden="true" focusable="false"><path d="M40 190 v-47 l35 -32 l35 32 v47 Z" fill="#070d18"/><path d="M129 190 v-86 l27 -18 l27 18 v86 Z" fill="#070d18"/><path d="M191 190 v-60 l28 -32 l28 32 v60 Z" fill="#070d18"/><path d="M257 190 v-85 l50 -34 l50 34 v85 Z" fill="#070d18"/><path d="M373 190 v-56 l34 -25 l34 25 v56 Z" fill="#070d18"/><path d="M453 190 v-39 l48 -18 l48 18 v39 Z" fill="#070d18"/><path d="M574 190 v-39 l34 -24 l34 24 v39 Z" fill="#070d18"/><path d="M654 190 v-63 l43 -26 l43 26 v63 Z" fill="#070d18"/><path d="M762 190 v-77 l50 -17 l50 17 v77 Z" fill="#070d18"/><path d="M882 190 v-41 l25 -22 l25 22 v41 Z" fill="#070d18"/><path d="M952 190 v-59 l45 -25 l45 25 v59 Z" fill="#070d18"/><path d="M1062 190 v-45 l43 -34 l43 34 v45 Z" fill="#070d18"/><path d="M1159 190 v-52 l41 -32 l41 32 v52 Z" fill="#070d18"/><path d="M1261 190 v-54 l24 -20 l24 20 v54 Z" fill="#070d18"/><path d="M1324 190 v-72 l43 -20 l43 20 v72 Z" fill="#070d18"/><path d="M1417 190 v-56 l50 -22 l50 22 v56 Z" fill="#070d18"/><path d="M1529 190 v-71 l36 -23 l36 23 v71 Z" fill="#070d18"/><path d="M672 190 v-118 l22 -46 l22 46 v118 Z" fill="#060b14"/><path d="M716 190 v-74 l30 -30 l30 30 v74 Z" fill="#060b14"/><path d="M694 26 v-16 M688 32 h12" stroke="#f6cf7a" stroke-width="2.4" stroke-linecap="round" opacity="0.5"/><rect x="72" y="165" width="5" height="6" fill="#f6cf7a" opacity="0.73"/><rect x="148" y="151" width="5" height="6" fill="#f6cf7a" opacity="0.65"/><rect x="223" y="165" width="5" height="6" fill="#f6cf7a" opacity="0.75"/><rect x="315" y="143" width="5" height="6" fill="#f6cf7a" opacity="0.36"/><rect x="401" y="168" width="5" height="6" fill="#f6cf7a" opacity="0.54"/><rect x="484" y="174" width="5" height="6" fill="#f6cf7a" opacity="0.67"/><rect x="600" y="170" width="5" height="6" fill="#f6cf7a" opacity="0.52"/><rect x="692" y="158" width="5" height="6" fill="#f6cf7a" opacity="0.78"/><rect x="799" y="154" width="5" height="6" fill="#f6cf7a" opacity="0.70"/><rect x="905" y="174" width="5" height="6" fill="#f6cf7a" opacity="0.79"/><rect x="989" y="155" width="5" height="6" fill="#f6cf7a" opacity="0.78"/><rect x="1205" y="160" width="5" height="6" fill="#f6cf7a" opacity="0.44"/><rect x="1285" y="169" width="5" height="6" fill="#f6cf7a" opacity="0.59"/><rect x="691" y="94" width="6" height="9" rx="3" fill="#f6cf7a" opacity="0.7"/></svg>