<svg xmlns="http://www.w3.org/2000/svg" width="620" height="620" viewBox="0 0 620 620"><circle cx="200.8" cy="93.5" r="1.28" fill="#ffffff" opacity="0.35"/><circle cx="226.7" cy="36.0" r="1.11" fill="#ffeec4" opacity="0.32"/><circle cx="259.3" cy="149.2" r="1.16" fill="#ffffff" opacity="0.34"/><circle cx="587.4" cy="391.0" r="1.20" fill="#ffeec4" opacity="0.34"/><circle cx="30.7" cy="137.1" r="1.17" fill="#ffeec4" opacity="0.39"/><circle cx="89.4" cy="73.0" r="0.87" fill="#fff8e2" opacity="0.83"/><circle cx="63.9" cy="354.1" r="0.73" fill="#ffffff" opacity="0.36"/><circle cx="349.9" cy="383.8" r="1.10" fill="#e8f0ff" opacity="0.65"/><circle cx="288.7" cy="572.5" r="0.93" fill="#fff8e2" opacity="0.46"/><circle cx="433.4" cy="151.3" r="1.19" fill="#e8f0ff" opacity="0.64"/><circle cx="452.3" cy="178.5" r="1.68" fill="#ffeec4" opacity="0.38"/><circle cx="102.3" cy="212.1" r="1.62" fill="#ffffff" opacity="0.57"/><circle cx="474.0" cy="355.3" r="1.55" fill="#e8f0ff" opacity="0.50"/><circle cx="368.5" cy="359.5" r="1.05" fill="#e8f0ff" opacity="0.85"/><circle cx="293.9" cy="411.8" r="0.57" fill="#ffeec4" opacity="0.76"/><circle cx="176.4" cy="239.2" r="1.30" fill="#ffeec4" opacity="0.31"/><circle cx="220.4" cy="378.8" r="1.09" fill="#e8f0ff" opacity="0.44"/><circle cx="80.2" cy="153.5" r="0.97" fill="#ffffff" opacity="0.87"/><circle cx="103.1" cy="249.0" r="0.83" fill="#ffeec4" opacity="0.39"/><circle cx="535.7" cy="172.6" r="1.00" fill="#ffeec4" opacity="0.53"/><circle cx="593.8" cy="93.6" r="0.71" fill="#fff8e2" opacity="0.45"/><circle cx="7.5" cy="515.3" r="0.72" fill="#fff8e2" opacity="0.48"/><circle cx="259.7" cy="228.9" r="1.18" fill="#ffffff" opacity="0.92"/><circle cx="283.1" cy="540.0" r="1.64" fill="#ffeec4" opacity="0.74"/><circle cx="246.8" cy="244.4" r="1.08" fill="#fff8e2" opacity="0.56"/><circle cx="41.8" cy="129.4" r="0.69" fill="#ffffff" opacity="0.52"/><circle cx="63.5" cy="351.4" r="1.14" fill="#ffffff" opacity="0.92"/><circle cx="43.6" cy="128.9" r="0.95" fill="#e8f0ff" opacity="0.71"/><circle cx="373.4" cy="294.0" r="0.64" fill="#ffeec4" opacity="0.62"/><circle cx="297.8" cy="193.3" r="0.67" fill="#e8f0ff" opacity="0.79"/><circle cx="296.7" cy="429.1" r="1.12" fill="#e8f0ff" opacity="0.43"/><circle cx="90.9" cy="336.8" r="0.53" fill="#ffffff" opacity="0.64"/><circle cx="431.6" cy="161.9" r="0.94" fill="#fff8e2" opacity="0.41"/><circle cx="330.2" cy="483.0" r="0.90" fill="#fff8e2" opacity="0.44"/><circle cx="499.8" cy="507.4" r="1.39" fill="#ffeec4" opacity="0.45"/><circle cx="220.4" cy="18.0" r="0.53" fill="#e8f0ff" opacity="0.48"/><circle cx="120.1" cy="375.2" r="0.91" fill="#e8f0ff" opacity="0.83"/><circle cx="592.1" cy="226.1" r="0.76" fill="#fff8e2" opacity="0.45"/><circle cx="209.4" cy="299.2" r="1.68" fill="#ffffff" opacity="0.70"/><circle cx="297.3" cy="404.8" r="1.46" fill="#ffffff" opacity="0.36"/><circle cx="564.1" cy="485.0" r="1.40" fill="#fff8e2" opacity="0.61"/><circle cx="269.0" cy="394.2" r="0.60" fill="#ffeec4" opacity="0.92"/><circle cx="287.2" cy="460.9" r="0.60" fill="#fff8e2" opacity="0.40"/><circle cx="17.1" cy="366.3" r="1.06" fill="#ffeec4" opacity="0.73"/><circle cx="407.5" cy="217.3" r="1.16" fill="#ffffff" opacity="0.39"/><circle cx="495.6" cy="450.3" r="0.62" fill="#fff8e2" opacity="0.79"/><circle cx="269.0" cy="540.5" r="1.49" fill="#e8f0ff" opacity="0.44"/><circle cx="131.9" cy="310.7" r="1.42" fill="#ffeec4" opacity="0.51"/><circle cx="517.2" cy="37.8" r="1.39" fill="#ffeec4" opacity="0.88"/><circle cx="512.8" cy="544.5" r="0.66" fill="#ffffff" opacity="0.40"/><circle cx="541.1" cy="481.4" r="1.23" fill="#fff8e2" opacity="0.80"/><circle cx="106.9" cy="293.6" r="1.37" fill="#e8f0ff" opacity="0.66"/><circle cx="423.0" cy="329.1" r="1.08" fill="#ffffff" opacity="0.80"/><circle cx="154.1" cy="171.7" r="1.43" fill="#ffffff" opacity="0.63"/><circle cx="471.2" cy="565.7" r="1.03" fill="#fff8e2" opacity="0.70"/><circle cx="429.5" cy="280.5" r="1.14" fill="#fff8e2" opacity="0.61"/><circle cx="433.5" cy="543.5" r="1.63" fill="#fff8e2" opacity="0.47"/><circle cx="520.8" cy="85.0" r="0.65" fill="#ffffff" opacity="0.59"/><circle cx="416.1" cy="265.6" r="0.76" fill="#ffffff" opacity="0.50"/><circle cx="556.2" cy="95.8" r="1.36" fill="#fff8e2" opacity="0.73"/><circle cx="156.9" cy="85.1" r="1.06" fill="#ffffff" opacity="0.79"/><circle cx="246.9" cy="302.1" r="1.69" fill="#fff8e2" opacity="0.84"/><circle cx="437.9" cy="616.3" r="0.98" fill="#e8f0ff" opacity="0.57"/><circle cx="197.5" cy="447.7" r="0.52" fill="#ffeec4" opacity="0.66"/><circle cx="436.0" cy="238.3" r="1.12" fill="#ffffff" opacity="0.49"/><circle cx="70.0" cy="569.5" r="0.77" fill="#ffffff" opacity="0.87"/><circle cx="164.6" cy="24.5" r="1.43" fill="#fff8e2" opacity="0.48"/><circle cx="508.3" cy="526.7" r="1.31" fill="#ffeec4" opacity="0.91"/><circle cx="92.6" cy="569.9" r="1.18" fill="#ffffff" opacity="0.76"/><circle cx="173.0" cy="495.7" r="0.72" fill="#e8f0ff" opacity="0.88"/><circle cx="581.8" cy="393.4" r="1.46" fill="#fff8e2" opacity="0.35"/><circle cx="41.3" cy="534.9" r="1.04" fill="#ffeec4" opacity="0.52"/><circle cx="574.5" cy="166.1" r="0.66" fill="#fff8e2" opacity="0.64"/><circle cx="581.6" cy="600.9" r="0.81" fill="#e8f0ff" opacity="0.42"/><circle cx="389.8" cy="329.3" r="0.75" fill="#fff8e2" opacity="0.59"/><circle cx="167.7" cy="498.3" r="1.69" fill="#ffffff" opacity="0.32"/><circle cx="454.5" cy="341.7" r="0.73" fill="#ffeec4" opacity="0.61"/><circle cx="65.9" cy="507.7" r="1.02" fill="#ffeec4" opacity="0.62"/><circle cx="601.6" cy="190.8" r="0.76" fill="#fff8e2" opacity="0.45"/><circle cx="516.0" cy="438.2" r="1.26" fill="#e8f0ff" opacity="0.56"/><circle cx="608.8" cy="518.9" r="0.52" fill="#e8f0ff" opacity="0.71"/><circle cx="267.1" cy="34.3" r="1.30" fill="#e8f0ff" opacity="0.55"/><circle cx="371.2" cy="429.5" r="0.55" fill="#e8f0ff" opacity="0.42"/><circle cx="276.4" cy="163.2" r="1.65" fill="#e8f0ff" opacity="0.93"/><circle cx="151.6" cy="598.7" r="0.87" fill="#ffffff" opacity="0.53"/><circle cx="207.9" cy="52.0" r="0.83" fill="#fff8e2" opacity="0.73"/><circle cx="312.9" cy="3.1" r="0.82" fill="#ffeec4" opacity="0.36"/><circle cx="363.8" cy="244.3" r="0.86" fill="#ffffff" opacity="0.71"/><circle cx="363.1" cy="328.1" r="1.40" fill="#ffeec4" opacity="0.73"/><circle cx="473.9" cy="446.8" r="1.09" fill="#fff8e2" opacity="0.48"/><circle cx="27.1" cy="517.9" r="1.57" fill="#fff8e2" opacity="0.71"/><circle cx="564.1" cy="466.8" r="1.18" fill="#ffffff" opacity="0.83"/><circle cx="512.4" cy="362.1" r="1.57" fill="#fff8e2" opacity="0.74"/><circle cx="52.8" cy="26.0" r="1.26" fill="#ffeec4" opacity="0.92"/><circle cx="518.2" cy="346.3" r="1.25" fill="#fff8e2" opacity="0.71"/><circle cx="303.4" cy="2.1" r="1.46" fill="#ffffff" opacity="0.79"/><circle cx="408.8" cy="41.0" r="1.38" fill="#ffffff" opacity="0.46"/><circle cx="524.6" cy="145.6" r="1.41" fill="#ffeec4" opacity="0.45"/><circle cx="306.2" cy="237.2" r="1.07" fill="#ffffff" opacity="0.74"/><circle cx="382.5" cy="398.5" r="0.59" fill="#e8f0ff" opacity="0.40"/><circle cx="404.0" cy="429.6" r="1.25" fill="#ffeec4" opacity="0.39"/><circle cx="37.6" cy="166.6" r="1.31" fill="#ffeec4" opacity="0.75"/><circle cx="180.3" cy="320.3" r="1.06" fill="#ffffff" opacity="0.60"/><circle cx="615.8" cy="340.4" r="0.87" fill="#ffeec4" opacity="0.36"/><circle cx="10.9" cy="284.6" r="1.48" fill="#ffeec4" opacity="0.93"/><circle cx="616.3" cy="239.8" r="1.60" fill="#ffffff" opacity="0.90"/><circle cx="360.5" cy="87.9" r="1.13" fill="#fff8e2" opacity="0.92"/><circle cx="374.1" cy="391.6" r="0.84" fill="#e8f0ff" opacity="0.37"/><circle cx="143.5" cy="556.6" r="1.08" fill="#ffffff" opacity="0.32"/><circle cx="589.0" cy="422.6" r="0.99" fill="#ffeec4" opacity="0.77"/><circle cx="213.3" cy="196.0" r="1.51" fill="#e8f0ff" opacity="0.30"/><circle cx="520.2" cy="74.4" r="1.61" fill="#e8f0ff" opacity="0.76"/><circle cx="157.0" cy="40.3" r="0.97" fill="#ffffff" opacity="0.87"/><circle cx="223.6" cy="265.4" r="0.83" fill="#ffffff" opacity="0.33"/><circle cx="32.0" cy="410.4" r="1.26" fill="#e8f0ff" opacity="0.40"/><circle cx="270.5" cy="195.7" r="1.43" fill="#ffeec4" opacity="0.81"/><circle cx="548.2" cy="503.4" r="1.26" fill="#fff8e2" opacity="0.89"/><circle cx="446.1" cy="30.7" r="1.38" fill="#fff8e2" opacity="0.59"/><circle cx="399.6" cy="177.4" r="0.56" fill="#fff8e2" opacity="0.90"/><circle cx="105.9" cy="257.2" r="0.84" fill="#e8f0ff" opacity="0.47"/><circle cx="251.8" cy="148.0" r="1.08" fill="#ffffff" opacity="0.73"/><circle cx="103.7" cy="100.2" r="0.75" fill="#ffeec4" opacity="0.89"/><circle cx="341.2" cy="280.9" r="0.90" fill="#ffeec4" opacity="0.79"/><circle cx="86.5" cy="119.3" r="0.61" fill="#ffffff" opacity="0.52"/><circle cx="198.0" cy="228.3" r="1.47" fill="#ffffff" opacity="0.43"/><circle cx="464.8" cy="255.9" r="1.00" fill="#ffeec4" opacity="0.64"/><circle cx="167.5" cy="466.3" r="1.10" fill="#e8f0ff" opacity="0.67"/><circle cx="78.0" cy="312.1" r="1.26" fill="#fff8e2" opacity="0.86"/><circle cx="57.4" cy="556.0" r="0.96" fill="#ffeec4" opacity="0.72"/><circle cx="591.4" cy="526.2" r="1.55" fill="#ffffff" opacity="0.31"/><path d="M263.6 467.7c1.0 3.2 2.6 4.7 5.8 5.8c-3.2 1.0 -4.7 2.6 -5.8 5.8c-1.0 -3.2 -2.6 -4.7 -5.8 -5.8c3.2 -1.0 4.7 -2.6 5.8 -5.8Z" fill="#fff6d8" opacity="0.94"/><path d="M303.7 39.2c1.1 3.4 2.8 5.1 6.2 6.2c-3.4 1.1 -5.1 2.8 -6.2 6.2c-1.1 -3.4 -2.8 -5.1 -6.2 -6.2c3.4 -1.1 5.1 -2.8 6.2 -6.2Z" fill="#fff6d8" opacity="0.92"/><path d="M327.3 285.6c0.8 2.6 2.1 3.8 4.6 4.6c-2.6 0.8 -3.8 2.1 -4.6 4.6c-0.8 -2.6 -2.1 -3.8 -4.6 -4.6c2.6 -0.8 3.8 -2.1 4.6 -4.6Z" fill="#fff6d8" opacity="0.86"/><path d="M138.8 88.0c1.1 3.5 2.8 5.2 6.3 6.3c-3.5 1.1 -5.2 2.8 -6.3 6.3c-1.1 -3.5 -2.8 -5.2 -6.3 -6.3c3.5 -1.1 5.2 -2.8 6.3 -6.3Z" fill="#fff6d8" opacity="0.59"/><path d="M511.7 428.7c1.1 3.2 2.7 4.8 5.9 5.9c-3.2 1.1 -4.8 2.7 -5.9 5.9c-1.1 -3.2 -2.7 -4.8 -5.9 -5.9c3.2 -1.1 4.8 -2.7 5.9 -5.9Z" fill="#fff6d8" opacity="0.91"/><path d="M52.7 478.4c0.6 1.8 1.4 2.6 3.2 3.2c-1.8 0.6 -2.6 1.4 -3.2 3.2c-0.6 -1.8 -1.4 -2.6 -3.2 -3.2c1.8 -0.6 2.6 -1.4 3.2 -3.2Z" fill="#fff6d8" opacity="0.60"/><path d="M353.0 17.8c1.0 3.0 2.5 4.5 5.5 5.5c-3.0 1.0 -4.5 2.5 -5.5 5.5c-1.0 -3.0 -2.5 -4.5 -5.5 -5.5c3.0 -1.0 4.5 -2.5 5.5 -5.5Z" fill="#fff6d8" opacity="0.93"/></svg>